<?xml version="1.0" encoding="utf-8"?>
<!-- Designed by Vexels.com - 2020 All Rights Reserved - https://vexels.com/terms-and-conditions/  -->
<svg version="1.1" id="Layer_1" xmlns="http://www.w3.org/2000/svg" xmlns:xlink="http://www.w3.org/1999/xlink" x="0px" y="0px"
	 viewBox="0 0 1200 1200" enable-background="new 0 0 1200 1200" xml:space="preserve">
<g>
	<path fill="#3DB29F" d="M1149.725,971.393c-0.853-3.535-3.651-6.233-6.436-8.572c-20.474-17.193-46.59-26.113-72.578-32.395
		c-1.855-0.449-3.717-0.869-5.578-1.295c26.125-16.649,49.405-35.852,67.523-57.692c6.642-8.007,12.927-17.053,13.872-27.413
		c1.658-18.159-14.282-34.146-31.855-39.011c-17.573-4.865-36.247-1.374-54.14,2.138c36.474-31.083,63.525-73.081,76.74-119.145
		c6.378-22.229,9.53-46.253,2.676-68.339c-8.857-28.538-33.932-50.264-62.227-59.869s-59.377-8.247-88.461-1.392
		c23.811-38.672,47.938-78.07,59.443-122.003c11.505-43.932,8.727-93.875-18.07-130.54c-35.62-48.737-107.616-61.767-163.487-38.909
		c-55.87,22.858-95.82,75.13-116.149,131.97c11.882-54.501,1.386-113.536-28.553-160.603
		c-29.939-47.066-78.96-81.596-133.359-93.936c-27.932-6.336-57.623-6.92-84.874,1.896c-39.415,12.751-70.623,44.177-91.542,79.934
		c-27.468,46.953-39.299,104.402-25.222,156.946c-43.014-5.129-87.44,2.182-126.542,20.824
		c-19.711,9.398-39.482,23.464-45.172,44.547c-8.616,31.92,18.021,61.579,42.348,83.971c-22.32,10.691-45.043,21.655-62.97,38.716
		c-17.927,17.062-30.592,41.545-27.342,66.078c0.445,3.364,1.174,6.613,2.125,9.77c-35.134-3.888-71.1-2.597-107.341,5.44
		c-3.432,0.761-7.168,1.778-9.639,4.878c-2.579,3.235-3.001,7.781-2.904,11.826c0.909,37.78,31.578,60.32,60.557,74.725
		c9.945,4.944,20.027,9.541,30.223,13.845c-4.307,2.354-8.614,4.709-12.92,7.063c-21.87,11.954-44.304,24.369-60.123,43.628
		c-15.819,19.26-23.644,47.256-12.554,69.577c7.901,15.901,23.804,26.285,40.049,33.45c3.976,1.754,8,3.339,12.056,4.801
		c-3.437,2.025-7.056,4.406-8.332,8.176c-1.349,3.986,0.337,8.335,2.366,12.022c18.947,34.422,63.942,43.189,103.187,45.128
		c5.459,0.27,10.916,0.46,16.371,0.613c-7.291,3.7-14.495,7.601-21.58,11.761c-3.476,2.041-7.173,4.436-8.465,8.256
		c-1.349,3.986,0.337,8.335,2.366,12.021c18.947,34.422,63.942,43.189,103.187,45.129c98.919,4.889,197.2-9.706,294.539-29.675
		c45.585-0.31,91.151-2.564,136.541-6.78c95.096,7.625,190.886,6.592,285.791-3.13c42.562-4.359,85.957-10.775,123.728-30.874
		C1143.891,985.281,1151.557,978.983,1149.725,971.393z"/>
	<path fill="#019798" d="M338.218,806.042c-7.615-0.834-15.589-1.351-22.683,1.539c-7.094,2.89-12.966,10.191-11.725,17.751
		c0.892,5.433,5.07,9.682,9.274,13.238c15.403,13.029,34.191,21.951,53.958,25.908c14.609,2.925,45.299,7.626,56.054-5.922
		C449.126,825.767,355.446,807.928,338.218,806.042z"/>
	<path fill="#019798" d="M483.244,657.736c-10.773-23.843-28.407-44.989-51.365-57.538c-10.161,25.931-7.989,56.395,5.751,80.622
		c7.438,13.116,31.2,43.162,49.166,39.652C508.998,716.134,488.725,669.868,483.244,657.736z"/>
	<path fill="#019798" d="M757.26,744.091c11.079-16.571,22.617-33.04,37.112-46.723c14.495-13.683,32.284-24.54,51.944-27.828
		c6.301,12.61,0.24,27.717-6.666,40.007c-19.59,34.86-46.473,65.565-78.274,89.789c-10.308,7.852-42.026,33.189-36.595,3.471
		C728.47,782.623,746.106,760.773,757.26,744.091z"/>
	<path fill="#019798" d="M780.766,456.463c17.094-34.393,44.42-64.851,79.887-79.586c-16.527,26.102-15.983,59.153-24.664,88.802
		c-5.43,18.546-14.558,35.75-25.58,51.554c-7.319,10.495-23.836,38.881-37.951,39.373
		C735.082,557.909,773.873,470.333,780.766,456.463z"/>
	<path fill="#019798" d="M647.558,544.1c-1.373-20.258-5.77-42.503-21.953-54.766c-2.314-1.753-4.994-3.303-7.897-3.273
		c-4.157,0.043-7.545,3.244-10.217,6.428c-12.114,14.435-19.067,33.114-19.339,51.957c-0.269,18.632,11.018,70.912,35.405,72.048
		C655.636,617.988,648.776,562.072,647.558,544.1z"/>
	<path fill="#019798" d="M405.232,435.505c-7.08-3.718-14.301-7.446-22.147-8.995c-4.646-0.917-10.559-0.421-12.571,3.866
		c-0.917,1.954-0.744,4.235-0.368,6.36c2.463,13.934,12.385,25.209,22.03,35.562c13.799,14.811,50.821,53.49,68.403,23.119
		C477.518,466.159,424.219,445.476,405.232,435.505z"/>
	<path fill="#019798" d="M660.607,753.261c0.486-3.77,0.887-7.705-0.388-11.286c-2.026-5.693-8.154-9.296-14.195-9.451
		s-11.865,2.661-16.443,6.605c-8.99,7.744-13.59,19.388-16.582,30.87c-3.79,14.543-5.518,29.942-2.193,44.598
		c1.61,7.096,6.871,24.109,14.513,27.176c11.822,4.745,14.616-10.225,18.127-19.59C651.778,799.962,657.569,776.801,660.607,753.261
		z"/>
	<path fill="#019798" d="M957.704,850.717c12.058-0.561,24.479-0.396,35.71,4.032c4.825,1.902,10.106,6.535,8.081,11.309
		c-0.792,1.867-2.543,3.124-4.243,4.231c-19.688,12.812-43.522,18.437-67.012,18.372c-10.432-0.029-74.68-4.606-57.349-22.646
		c6.978-7.263,33.438-8.954,43.201-10.675C929.845,852.914,943.753,851.366,957.704,850.717z"/>
	<path fill="#019798" d="M1065.313,620.746c3.93-0.794,8.571-1.141,11.391,1.708c1.869,1.888,2.401,4.71,2.546,7.363
		c0.646,11.862-4.785,23.517-12.913,32.181c-13.264,14.138-70.91,47.634-74.894,9.996
		C988.417,643.409,1044.193,625.016,1065.313,620.746z"/>
	<g>
		<path fill="#31353E" d="M777.597,900.456c5.899,6.553,7.374,15.695,1.707,25.499c-2.814,4.93-7.398,10.054-13.874,15.437
			c-6.471,5.389-14.848,11.023-25.001,17.275c-10.153,6.252-19.121,11.409-26.685,15.801c-7.579,4.378-13.752,7.99-18.561,10.903
			c-9.652,5.798-13.722,8.898-14.232,8.4c-0.493-0.481,2.411-4.677,8.063-14.464c2.848-4.9,6.46-11.113,10.89-18.735
			c4.481-7.609,9.86-16.599,16.613-26.67c6.753-10.071,13.016-18.279,18.962-24.507c5.933-6.243,11.546-10.505,16.779-12.958
			C762.703,891.493,771.714,893.921,777.597,900.456z"/>
	</g>
	<g>
		<path fill="#31353E" d="M712.967,842.51c3.658,1.065,5.309,7.621,3.231,20.197c-2.031,12.585-7.894,31.162-18.062,56.47
			c-5.07,12.657-9.703,23.403-13.692,32.436c-3.989,9.033-7.349,16.35-10.025,22.104c-5.382,11.495-7.996,16.75-8.668,16.517
			c-0.691-0.24,0.572-5.971,3.341-18.335c2.813-12.348,7.03-31.358,13.379-57.729c3.188-13.181,6.067-24.422,8.837-33.804
			c2.77-9.382,5.42-16.907,7.995-22.698C704.425,846.081,709.29,841.439,712.967,842.51z"/>
	</g>
	<g>
		<path fill="#31353E" d="M546.099,886.553c-0.113-0.639,0.099-1.384,1.001-2.013c0.877-0.637,2.577-1.016,4.596-0.57
			c2.022,0.422,4.152,1.598,6.113,3.211c0.97,0.779,1.978,1.787,2.834,2.637c0.876,0.871,1.794,1.825,2.754,2.866
			c3.836,4.166,8.385,9.675,13.732,16.614c5.353,6.935,11.519,15.29,18.74,25.042c14.431,19.512,24.945,33.403,31.771,42.469
			c6.827,9.067,9.928,13.339,9.384,13.846c-0.518,0.483-4.632-2.832-13.043-10.529c-4.182-3.871-9.456-8.823-15.747-15.083
			c-6.293-6.257-13.638-13.792-21.898-22.867c-16.529-18.15-27.153-32.165-32.979-42.022c-0.729-1.232-1.386-2.398-1.974-3.497
			c-0.602-1.125-0.96-1.928-1.361-2.719c-0.694-1.376-1.266-2.511-1.722-3.415c-0.407-0.816-0.772-1.484-1.22-2.099
			C546.647,887.801,546.214,887.223,546.099,886.553z"/>
	</g>
	<g>
		<path fill="#31353E" d="M373.119,984.444c-0.026-0.365,1.885-0.839,5.895-1.556c2.006-0.352,4.536-0.79,7.615-1.254
			c3.088-0.422,6.718-0.918,10.912-1.49c4.203-0.531,8.98-1.041,14.355-1.647c5.376-0.461,11.352-1.126,17.953-1.524
			c6.602-0.503,13.825-0.842,21.699-1.144c3.939-0.083,8.036-0.168,12.294-0.257c4.263,0.015,8.686,0.031,13.274,0.047
			c4.589,0.138,9.013,0.271,13.277,0.399c4.26,0.249,8.36,0.489,12.301,0.719c7.87,0.624,15.104,1.325,21.686,2.26
			c6.597,0.831,12.523,1.997,17.859,3.042c5.312,1.187,10.018,2.361,14.113,3.628c4.089,1.299,7.584,2.603,10.506,3.898
			c2.916,1.326,5.253,2.677,7.052,3.967c3.597,2.589,5.02,5.03,4.523,7.148c-0.497,2.118-2.861,3.709-7.152,4.529
			c-2.147,0.416-4.77,0.615-7.897,0.641c-3.134,0.057-6.763-0.096-10.906-0.48c-4.149-0.352-8.828-0.848-14.036-1.618
			c-5.234-0.628-10.982-1.638-17.346-2.584c-6.355-1.038-13.297-2.172-20.846-3.405c-3.784-0.601-7.72-1.225-11.811-1.875
			c-4.103-0.615-8.36-1.252-12.776-1.914c-4.43-0.609-8.702-1.197-12.819-1.763c-4.131-0.514-8.105-1.009-11.926-1.485
			c-7.656-0.857-14.715-1.659-21.195-2.234c-6.479-0.68-12.374-1.031-17.699-1.501c-5.332-0.333-10.082-0.629-14.269-0.89
			c-4.198-0.205-7.831-0.381-10.922-0.532c-3.094-0.128-5.644-0.234-7.671-0.319C375.109,985.038,373.146,984.81,373.119,984.444z"
			/>
	</g>
</g>
</svg>
